<svg xmlns="http://www.w3.org/2000/svg" xmlns:svg="http://www.w3.org/2000/svg" id="svg2985" width="128" height="128" docname="nuget_path.svg" version="1.1" xml:space="preserve"><title id="title3379">NuGet Logo</title><metadata id="metadata2991"/><g id="g2993" transform="matrix(1.25,0,0,-1.25,-3.3190875,132.88281)"><path style="fill:#000;stroke:none" id="path3013" d="m 13.75527,102.30625 c -4.627969,0 -8.375,-3.74703 -8.375,-8.375 0,-4.628781 3.747031,-8.4 8.375,-8.4 4.62878,0 8.375,3.771219 8.375,8.4 0,4.62797 -3.74622,8.375 -8.375,8.375 z m 32.8,-11.825 c -14.785995,0 -26.775,-12.00996 -26.775,-26.8 l 0,-29.000003 c 0,-14.78924 11.989005,-26.7750005 26.775,-26.7750005 l 29,0 c 14.785992,0 26.775,11.9857605 26.775,26.7750005 l 0,29.000003 c 0,14.79004 -11.989008,26.8 -26.775,26.8 l -29,0 z m -5.5,-13.775 c 5.580309,0 10.125,-4.51888 10.125,-10.1 0,-5.58031 -4.544691,-10.1 -10.125,-10.1 -5.58193,0 -10.1,4.51969 -10.1,10.1 0,5.58112 4.51807,10.1 10.1,10.1 z m 33.125,-24.5 c 9.61904,0 17.4,-7.80839 17.4,-17.425003 0,-9.617424 -7.78096,-17.4 -17.4,-17.4 -9.616612,0 -17.425,7.782576 -17.425,17.4 0,9.616613 7.808388,17.425003 17.425,17.425003 z"/></g></svg>